<?xml version="1.0" standalone="no"?>
<!DOCTYPE svg PUBLIC "-//W3C//DTD SVG 20010904//EN"
 "http://www.w3.org/TR/2001/REC-SVG-20010904/DTD/svg10.dtd">
<svg version="1.0" xmlns="http://www.w3.org/2000/svg"
 width="1200.000000pt" height="436.000000pt" viewBox="0 0 1200.000000 436.000000"
 preserveAspectRatio="xMidYMid meet">

<g transform="translate(0.000000,436.000000) scale(0.100000,-0.100000)"
fill="#000000" stroke="none">
<path d="M7059 3417 c-24 -19 -69 -90 -69 -109 0 -9 -13 -32 -30 -50 -16 -18
-30 -35 -30 -38 0 -3 -4 -11 -9 -19 -7 -10 -29 -3 -106 35 -59 29 -100 55
-103 66 -2 10 -9 18 -14 18 -6 0 -38 14 -71 31 -33 17 -71 29 -86 27 -35 -4
-38 -38 -16 -184 10 -62 16 -116 14 -121 -2 -6 -63 -2 -144 9 -242 32 -246 28
-156 -148 35 -68 62 -126 60 -128 -2 -2 -29 -16 -59 -31 -30 -15 -57 -31 -60
-34 -3 -4 -36 -19 -73 -35 -67 -28 -87 -47 -87 -84 0 -30 20 -41 103 -54 43
-6 77 -15 77 -20 0 -4 11 -8 25 -8 33 0 32 -16 -5 -111 -40 -103 -47 -151 -25
-169 13 -11 23 -11 46 -3 16 6 31 8 33 5 2 -4 4 -42 4 -84 1 -84 13 -118 42
-118 10 0 21 -3 24 -8 6 -10 -15 -37 -35 -44 -24 -9 -43 -99 -36 -167 8 -70
25 -121 42 -121 7 0 16 -12 19 -26 4 -14 33 -52 65 -83 42 -42 60 -67 65 -94
4 -20 11 -37 16 -37 6 0 10 -7 10 -15 0 -8 3 -15 8 -15 4 0 13 -19 20 -42 24
-76 135 -238 163 -238 4 0 29 -15 57 -34 27 -18 75 -44 106 -56 31 -13 56 -29
56 -36 0 -15 138 -71 204 -83 40 -7 63 -5 125 14 94 28 151 55 151 71 0 7 20
19 44 27 25 9 71 33 103 55 32 21 68 42 81 47 26 8 114 134 132 190 6 19 15
35 19 35 5 0 14 20 21 45 7 25 16 45 21 45 5 0 12 18 15 40 4 26 14 45 27 52
29 15 117 109 117 124 0 7 7 20 16 29 26 25 40 135 26 201 -6 31 -18 61 -25
68 -27 22 -28 46 -3 56 30 11 37 33 38 115 1 56 4 67 24 80 31 20 30 45 -2
137 -14 40 -30 88 -35 106 -6 17 -15 32 -20 32 -29 0 27 31 106 59 132 47 132
47 139 77 10 38 -26 69 -136 118 -49 22 -88 42 -88 46 0 3 -16 12 -35 19 -19
7 -35 16 -35 21 0 13 40 104 48 110 12 8 70 142 77 176 6 31 -13 64 -37 64
-20 0 -273 -65 -278 -72 -3 -3 -17 -9 -31 -13 -31 -8 -31 -10 -54 155 -18 122
-27 140 -74 140 -18 0 -45 -19 -88 -61 -35 -34 -63 -63 -63 -65 0 -4 -100 -98
-109 -102 -9 -3 -101 87 -101 100 0 5 -21 36 -46 69 -49 61 -79 74 -115 46z
m84 -179 c22 -23 50 -59 63 -80 14 -21 29 -38 34 -38 6 0 10 -7 10 -15 0 -22
46 -48 74 -41 13 3 39 25 58 48 18 24 37 45 43 47 5 2 33 26 61 53 28 26 53
48 56 48 3 0 11 -44 18 -97 16 -124 22 -139 56 -146 24 -4 209 36 267 58 21 9
21 5 3 -37 -59 -138 -77 -189 -74 -209 2 -18 18 -32 63 -54 33 -16 62 -33 65
-36 3 -3 28 -16 55 -28 45 -20 48 -23 30 -33 -11 -6 -22 -14 -25 -18 -3 -3
-25 -12 -50 -19 -94 -29 -107 -52 -74 -138 9 -24 15 -46 12 -49 -5 -5 -98 35
-108 47 -3 3 -20 11 -37 18 -18 7 -42 22 -54 32 -21 18 -47 19 -569 19 l-547
0 -27 -25 c-15 -14 -33 -25 -41 -25 -7 0 -20 -6 -27 -13 -18 -17 -129 -79
-134 -75 -2 3 5 29 16 59 23 62 25 102 8 117 -7 5 -35 13 -62 17 -64 9 -76 14
-70 30 5 12 34 26 111 55 18 7 44 23 59 35 23 19 26 28 20 56 -3 17 -19 53
-34 78 -36 59 -57 110 -48 119 4 3 10 1 14 -5 9 -14 230 -38 266 -29 24 6 26
10 26 60 0 30 -4 56 -9 58 -12 4 -25 138 -13 138 18 0 132 -60 132 -70 0 -4
16 -14 35 -20 19 -6 35 -16 35 -21 0 -16 92 -51 117 -44 17 4 33 26 59 80 20
41 39 75 43 75 4 0 15 14 24 30 10 17 21 30 24 30 4 0 25 -19 46 -42z m381
-789 c37 -17 56 -67 56 -144 0 -73 -27 -147 -59 -165 -27 -14 -725 -14 -752 0
-75 41 -80 272 -6 308 32 15 728 16 761 1z m303 -429 c3 -11 9 -20 14 -20 4 0
20 -21 35 -46 24 -40 26 -52 20 -106 -8 -83 -54 -163 -104 -183 -21 -8 -44
-19 -52 -23 -9 -6 -30 -2 -55 9 -52 23 -157 44 -179 36 -24 -9 -31 -35 -16
-62 13 -24 37 -34 147 -64 60 -16 68 -37 40 -101 -23 -52 -23 -52 -35 -26 -6
14 -18 26 -26 26 -16 0 -108 59 -114 73 -7 15 -44 6 -67 -18 -14 -13 -25 -27
-25 -30 0 -11 28 -35 41 -35 15 0 129 -117 129 -134 0 -12 -70 -91 -74 -84 -1
2 -8 16 -16 32 -8 16 -26 36 -39 45 -13 9 -37 28 -53 44 -34 32 -46 33 -64 10
-21 -27 -17 -58 12 -92 14 -17 34 -48 44 -68 l18 -38 -40 -24 c-47 -28 -194
-81 -223 -81 -26 0 -118 32 -201 70 l-63 28 12 33 c7 18 29 50 50 73 42 45 49
85 17 93 -11 3 -20 9 -20 14 0 5 -4 9 -9 9 -14 0 -141 -126 -141 -139 0 -6 -2
-11 -5 -11 -13 0 -75 65 -75 77 0 20 69 103 86 103 8 0 14 4 14 8 0 5 16 17
35 28 40 21 44 45 15 74 -20 20 -65 27 -72 13 -5 -11 -97 -73 -109 -73 -5 0
-15 -11 -21 -25 -17 -38 -31 -30 -51 25 -22 63 -12 85 46 100 132 34 174 61
163 104 -4 17 -13 26 -26 26 -11 0 -20 6 -20 13 0 8 -3 8 -8 1 -4 -5 -38 -18
-77 -29 -38 -10 -82 -24 -96 -31 -39 -20 -117 21 -158 83 -17 25 -31 51 -32
57 0 6 -4 34 -8 61 -10 59 -4 78 46 145 l37 50 674 0 c665 0 674 0 679 -20z"/>
<path d="M6792 1944 c-16 -11 -22 -25 -22 -54 0 -29 6 -43 22 -54 31 -22 91
-20 111 2 21 23 22 86 1 106 -20 20 -83 21 -112 0z"/>
<path d="M7386 1944 c-25 -24 -24 -78 1 -106 22 -25 94 -24 116 0 23 25 22 85
-1 105 -24 22 -95 22 -116 1z"/>
<path d="M8699 2648 c-1 -31 -1 -866 0 -900 l1 -28 239 0 238 0 6 36 c3 20 3
49 0 65 -5 28 -4 29 31 29 41 0 38 -11 38 145 0 134 2 125 -36 125 l-35 0 1
70 2 70 33 0 c37 0 36 -7 35 140 0 140 3 130 -38 130 l-36 0 3 43 c1 23 2 54
1 70 l-2 27 -240 0 -240 0 -1 -22z m418 -253 l0 -135 -137 0 -137 0 0 135 -1
135 138 0 138 0 -1 -135z m1 -410 l0 -135 -138 0 -138 0 0 135 1 135 137 0
137 0 1 -135z"/>
<path d="M9559 2648 c-1 -31 -1 -866 0 -900 l1 -28 239 0 238 0 6 36 c3 20 3
49 0 65 l-5 29 -168 0 -168 0 0 383 c0 210 -1 394 -1 410 -1 27 -2 27 -71 27
-66 0 -70 -1 -71 -22z"/>
<path d="M10408 2643 c-1 -16 0 -47 1 -70 l3 -43 -51 0 -51 0 0 -65 c0 -58 -2
-65 -20 -65 -23 0 -22 9 -22 -205 1 -219 -1 -205 22 -205 18 0 20 -7 20 -70
l0 -70 51 0 c51 0 51 0 46 -29 -3 -16 -3 -45 0 -65 l6 -36 132 0 132 0 6 36
c3 20 3 49 0 65 -5 29 -5 29 41 29 l46 0 0 70 c0 68 1 70 25 70 29 0 26 -18
27 205 0 219 2 205 -27 205 -24 0 -25 2 -25 65 l0 65 -46 0 -46 0 3 43 c1 23
2 54 1 70 l-2 27 -135 0 -135 0 -2 -27z m212 -178 c0 -65 0 -65 28 -65 l29 0
0 -205 1 -205 -29 0 -29 0 0 -70 0 -70 -80 0 -80 0 0 70 c0 67 -1 70 -24 70
l-24 0 1 205 0 205 24 0 c22 0 23 4 23 65 l0 65 80 0 80 0 0 -65z"/>
<path d="M11188 2643 c-1 -16 0 -47 1 -70 l3 -43 -41 0 c-45 0 -48 -6 -42 -92
2 -36 1 -38 -28 -38 -36 0 -33 17 -33 -205 1 -226 -3 -205 33 -205 29 0 30 -2
28 -37 -1 -21 -2 -53 -1 -70 2 -32 4 -33 43 -33 40 0 41 -1 36 -29 -3 -16 -3
-45 0 -65 l6 -36 167 0 167 0 6 36 c3 20 3 49 0 65 -5 27 -3 29 26 29 28 0 31
3 31 30 0 17 5 30 10 30 6 0 10 7 10 15 0 8 -4 15 -10 15 -5 0 -10 25 -10 55
0 30 5 55 10 55 6 0 10 7 10 15 0 8 -4 15 -10 15 -5 0 -10 25 -10 55 0 30 5
55 10 55 6 0 10 7 10 15 0 8 -4 15 -10 15 -5 0 -10 9 -10 20 0 19 -7 20 -114
20 l-114 0 -5 -26 c-2 -14 -2 -45 1 -70 l5 -44 47 0 47 0 1 -135 0 -135 -105
0 -105 0 3 43 c5 86 2 97 -30 97 l-29 0 1 205 0 205 29 0 c30 0 34 12 29 93
l-2 37 106 0 106 0 -2 -37 c-6 -94 -6 -93 66 -93 63 0 65 1 65 25 0 14 5 25
10 25 6 0 10 7 10 15 0 8 -4 15 -10 15 -5 0 -10 11 -10 25 0 21 -5 25 -31 25
-30 0 -31 1 -28 43 1 23 2 54 1 70 l-2 27 -170 0 -170 0 -2 -27z"/>
<path d="M416 2564 c-3 -9 -6 -28 -6 -44 0 -48 9 -60 45 -60 l34 0 -1 -265 0
-265 -52 0 -51 0 0 52 0 53 -52 3 -52 3 -6 -35 c-9 -45 2 -76 25 -76 16 0 19
-9 22 -52 l3 -53 108 -3 107 -3 0 56 0 55 35 0 35 0 0 264 0 265 33 3 c32 3
32 4 35 61 l3 57 -129 0 c-109 0 -131 -3 -136 -16z"/>
<path d="M945 2568 c-2 -7 -3 -177 -2 -378 l2 -365 154 -3 c166 -3 171 -1 171
50 0 56 -4 58 -114 58 l-102 0 -1 105 0 105 102 0 c112 0 115 2 115 60 0 58
-3 60 -114 60 l-103 0 0 100 0 100 103 0 c111 0 114 2 114 60 0 61 2 60 -166
60 -115 0 -156 -3 -159 -12z"/>
<path d="M1600 2525 c0 -54 0 -55 -30 -55 -30 0 -30 -1 -30 -55 0 -48 -2 -55
-20 -55 -11 0 -20 -7 -20 -15 0 -8 -4 -15 -10 -15 -5 0 -10 -13 -10 -30 0 -16
5 -30 10 -30 6 0 10 -9 10 -20 0 -11 -4 -20 -10 -20 -5 0 -10 -16 -10 -35 0
-19 5 -35 10 -35 6 0 10 -9 10 -20 0 -11 -4 -20 -10 -20 -15 0 -12 -49 4 -66
8 -8 22 -14 30 -14 13 0 16 -12 16 -55 0 -54 0 -55 30 -55 30 0 30 -1 30 -55
l0 -55 110 0 110 0 0 55 0 55 40 0 40 0 0 55 c0 42 3 55 15 55 13 0 15 24 15
160 0 136 -2 160 -15 160 -12 0 -15 13 -15 55 l0 55 -40 0 -40 0 0 55 0 55
-110 0 -110 0 0 -55z m179 -87 c-4 -50 1 -78 16 -78 13 0 15 -24 15 -160 0
-136 -2 -160 -15 -160 -15 0 -21 -27 -17 -82 l2 -28 -70 0 -70 0 0 55 c0 46
-3 55 -17 55 -16 0 -18 14 -18 160 0 146 2 160 18 160 14 0 17 9 17 50 l0 50
70 0 c67 0 71 -1 69 -22z"/>
<path d="M2109 2573 c-6 -28 -4 -735 1 -744 4 -6 28 -9 56 -7 l49 3 0 213 0
212 28 0 c26 0 27 -2 27 -55 0 -54 0 -55 30 -55 23 0 30 -5 30 -19 0 -11 -6
-22 -12 -25 -10 -5 -10 -7 0 -12 6 -3 12 -14 12 -25 0 -10 7 -19 15 -19 12 0
15 -13 15 -55 l0 -55 35 0 35 0 0 -55 0 -55 55 0 55 0 0 380 0 380 -55 0 -55
0 0 -220 0 -220 -25 0 c-24 0 -25 3 -25 55 0 52 -1 55 -25 55 -24 0 -25 3 -25
55 0 51 -2 55 -24 55 -22 0 -23 3 -18 46 4 40 2 46 -17 51 -18 5 -21 12 -21
64 l0 59 -70 0 c-38 0 -71 -3 -71 -7z"/>
<path d="M2830 2526 c0 -54 0 -55 -32 -58 -33 -3 -33 -3 -33 -55 1 -49 -1 -53
-22 -53 -27 0 -25 9 -29 -155 -3 -151 0 -165 29 -165 20 0 22 -5 22 -52 0 -52
0 -53 33 -56 32 -3 32 -4 32 -58 l0 -54 130 0 130 0 6 25 c3 14 4 39 0 55 -5
28 -3 30 24 30 l30 0 0 165 0 165 -84 0 c-114 0 -116 -1 -116 -66 l0 -54 45 0
45 0 0 -105 0 -105 -81 0 c-81 0 -81 0 -75 24 10 42 -4 86 -28 86 -21 0 -21 4
-21 160 0 156 0 160 21 160 24 0 37 40 27 79 -5 20 -2 21 76 21 l81 0 0 -34
c0 -58 7 -66 61 -66 l49 0 0 55 c0 53 -1 55 -27 55 -27 0 -28 2 -28 52 l0 53
-132 3 -133 3 0 -55z"/>
<path d="M3326 2564 c-3 -9 -6 -28 -6 -44 0 -56 6 -60 91 -60 l79 0 0 -320 0
-320 60 0 60 0 0 320 0 320 80 0 80 0 0 60 0 60 -219 0 c-190 0 -220 -2 -225
-16z"/>
<path d="M4064 2555 c-3 -14 -4 -39 -2 -56 3 -20 0 -33 -9 -36 -8 -3 -13 -22
-13 -54 0 -36 -4 -49 -15 -49 -17 0 -30 -58 -20 -89 5 -15 2 -21 -9 -21 -14 0
-16 -16 -16 -105 0 -84 -3 -105 -14 -105 -8 0 -17 -12 -19 -27 -8 -44 -7 -167
2 -181 5 -9 24 -12 52 -10 l44 3 0 108 0 107 108 0 107 0 0 -110 0 -110 55 0
55 0 0 110 c0 91 -3 110 -15 110 -16 0 -18 28 -15 153 1 47 -1 57 -15 57 -12
0 -16 8 -15 28 4 59 0 82 -15 82 -11 0 -15 12 -15 49 0 44 -3 49 -25 55 -27 7
-35 40 -12 50 10 5 10 7 0 12 -7 3 -13 17 -13 30 0 23 -2 24 -80 24 -77 0 -80
-1 -86 -25z m126 -245 c0 -33 5 -52 13 -56 9 -3 14 -24 15 -59 l1 -55 -59 0
-60 0 0 51 c0 33 6 56 16 66 11 11 15 30 12 60 -3 43 -3 43 29 43 33 0 33 0
33 -50z"/>
<path d="M4549 2573 c-6 -29 -4 -735 1 -743 4 -7 30 -10 61 -8 l54 3 0 158 0
157 48 0 c46 0 47 -1 41 -25 -3 -14 -3 -36 0 -50 5 -21 12 -25 46 -25 36 0 40
-3 40 -25 0 -14 -4 -25 -10 -25 -5 0 -10 -7 -10 -15 0 -8 5 -15 10 -15 6 0 10
-7 10 -15 0 -8 7 -15 15 -15 12 0 15 -13 15 -55 l0 -55 55 0 55 0 0 55 c0 42
-3 55 -15 55 -12 0 -15 13 -15 55 l0 55 -44 0 c-41 0 -43 1 -38 25 2 13 1 36
-2 50 -5 20 -13 25 -39 25 l-32 0 0 55 0 55 32 0 c26 0 34 5 39 25 3 14 4 39
2 55 -4 29 -4 30 39 30 l43 0 0 50 c0 38 4 50 15 50 12 0 15 13 15 60 l0 60
-55 0 -55 0 0 -55 c0 -42 -3 -55 -15 -55 -8 0 -15 -9 -15 -19 0 -11 -6 -22
-12 -25 -10 -5 -10 -7 0 -12 6 -3 12 -17 12 -30 0 -21 -4 -24 -40 -24 -37 0
-39 -2 -46 -35 -3 -19 -4 -42 0 -50 4 -12 -4 -15 -42 -15 l-47 0 0 157 0 158
-57 3 c-32 2 -59 -1 -59 -5z"/>
<path d="M5264 2554 c-4 -14 -4 -40 -1 -59 l6 -34 -47 -3 -47 -3 -2 -97 -2
-98 34 0 35 0 0 -60 0 -60 94 0 94 0 4 37 c9 77 4 83 -71 83 l-67 0 0 100 -1
100 68 0 69 0 0 -99 c0 -83 3 -100 16 -103 13 -2 16 -21 17 -111 2 -96 0 -107
-15 -107 -15 0 -18 -9 -18 -55 l0 -54 -92 -3 -93 -3 -3 -52 -3 -53 95 0 96 0
2 28 c0 15 0 39 -1 55 -2 26 -1 27 53 27 l56 0 0 55 c0 48 3 55 19 55 26 0 29
16 29 145 1 147 -4 175 -28 175 -17 0 -20 7 -20 50 l0 50 -56 0 -56 0 3 33 c1
17 1 44 0 60 l-1 27 -80 0 c-77 0 -80 -1 -86 -26z"/>
</g>
</svg>
